HIERARCHY
ROOT Hips
{
  OFFSET -187.679 86.5976 -156.378
  CHANNELS 6 Xposition Yposition Zposition Zrotation Xrotation Yrotation
  JOINT LeftUpLeg
  {
    OFFSET 8.64259 1.95398 -2.38835
    CHANNELS 3 Zrotation Xrotation Yrotation
    JOINT LeftLeg
    {
      OFFSET 43.7702 0 0
      CHANNELS 3 Zrotation Xrotation Yrotation
      JOINT LeftFoot
      {
        OFFSET 40.6238 0 0
        CHANNELS 3 Zrotation Xrotation Yrotation
        JOINT LeftToeBase
        {
          OFFSET 12.7242 0 0
          CHANNELS 3 Zrotation Xrotation Yrotation
          End Site
          {
            OFFSET 0 0 0
          }
        }
      }
    }
  }
  JOINT RightUpLeg
  {
    OFFSET -8.2249 1.95398 -2.59336
    CHANNELS 3 Zrotation Xrotation Yrotation
    JOINT RightLeg
    {
      OFFSET 43.5653 0 0
      CHANNELS 3 Zrotation Xrotation Yrotation
      JOINT RightFoot
      {
        OFFSET 40.6238 0 0
        CHANNELS 3 Zrotation Xrotation Yrotation
        JOINT RightToeBase
        {
          OFFSET 12.7242 0 0
          CHANNELS 3 Zrotation Xrotation Yrotation
          End Site
          {
            OFFSET 0 0 0
          }
        }
      }
    }
  }
  JOINT Spine
  {
    OFFSET 0.165834 0.87714 6.61349
    CHANNELS 3 Zrotation Xrotation Yrotation
    JOINT Spine1
    {
      OFFSET 7.38963 1.71661e-005 0
      CHANNELS 3 Zrotation Xrotation Yrotation
      JOINT Spine2
      {
        OFFSET 11.9445 1.14441e-005 0
        CHANNELS 3 Zrotation Xrotation Yrotation
        JOINT Spine3
        {
          OFFSET 14.7254 4.19617e-005 0
          CHANNELS 3 Zrotation Xrotation Yrotation
          JOINT Spine4
          {
            OFFSET 10.9679 0 0
            CHANNELS 3 Zrotation Xrotation Yrotation
            JOINT RightShoulder
            {
              OFFSET 2.46616 -1.6653 3.69651
              CHANNELS 3 Zrotation Xrotation Yrotation
              JOINT RightArm
              {
                OFFSET 13.0012 0 0
                CHANNELS 3 Zrotation Xrotation Yrotation
                JOINT RightForeArm
                {
                  OFFSET 28.7848 1.52588e-005 0
                  CHANNELS 3 Zrotation Xrotation Yrotation
                  JOINT RightHand
                  {
                    OFFSET 26.5688 1.52588e-005 0
                    CHANNELS 3 Zrotation Xrotation Yrotation
                    End Site
                    {
                      OFFSET 0 0 0
                    }
                  }
                }
              }
            }
            JOINT LeftShoulder
            {
              OFFSET 2.38034 -1.29275 -3.7523
              CHANNELS 3 Zrotation Xrotation Yrotation
              JOINT LeftArm
              {
                OFFSET 16.3182 6.10352e-005 0
                CHANNELS 3 Zrotation Xrotation Yrotation
                JOINT LeftForeArm
                {
                  OFFSET 27.0901 0 0
                  CHANNELS 3 Zrotation Xrotation Yrotation
                  JOINT LeftHand
                  {
                    OFFSET 24.5451 1.52588e-005 0
                    CHANNELS 3 Zrotation Xrotation Yrotation
                    End Site
                    {
                      OFFSET 0 0 0
                    }
                  }
                }
              }
            }
            JOINT Neck
            {
              OFFSET 5.0226 -0.0266342 0
              CHANNELS 3 Zrotation Xrotation Yrotation
              JOINT Head
              {
                OFFSET 6.69363 2.86102e-005 0
                CHANNELS 3 Zrotation Xrotation Yrotation
                End Site
                {
                  OFFSET 0 0 0
                }
              }
            }
          }
        }
      }
    }
  }
}
MOTION
Frames:	9
Frame Time:	0.0416667
288.409 81.2439 288.239 -80.201 40.9453 -103.397 -167.107 55.0318 75.3806 -78.3923 13.4882 -1.00151 84.2464 11.2295 0.72763 17.7009 -3.19896 -2.72069 168.522 13.0061 91.5613 -107.246 11.0657 -3.89703 68.4688 3.24416 4.05398 93.9331 8.35045 -3.6022 0.984999 8.17602 -88.5091 10.4832 2.64612 2.72799 -1.18768 2.76359 2.60892 -23.7104 1.70444 3.3966 -3.69777 1.70445 3.39659 90.5844 -42.2522 -101.61 12.637 36.4134 -4.47192 -41.6573 -12.0181 -108.329 -47.529 8.48339 -24.3673 -93.2009 -46.248 73.1609 -5.56826 0.766239 -6.72536 171.139 -11.8699 -56.2255 -126.918 -26.6391 9.95701 25.3202 -9.58292 -17.693 5.53678 -2.35031 7.15292 
275.228 88.4395 272.866 -84.0393 38.9805 -103.696 -171.771 28.5806 79.5952 -62.9917 6.62021 -0.880401 90.0631 10.766 -6.93452 26.6271 2.72915 -10.5476 168.237 28.7984 88.1184 -111.215 15.8065 -3.54841 72.0472 -5.0926 -3.5785 54.4379 3.43334 -1.52692 -0.180627 8.18934 -88.1461 10.475 0.490224 3.62835 -1.20137 0.649313 3.60329 -23.6932 -0.622001 3.60817 -3.68056 -0.621988 3.60816 92.1963 -44.0097 -98.4861 3.17174 28.751 22.7975 -36.4038 -3.4841 -127.094 -53.7957 12.9221 -30.6 -92.2776 -45.6306 74.4269 -6.96985 14.1993 -39.3278 -145.887 12.7294 -77.7063 -119.166 10.1764 -10.3779 20.5522 -6.16331 -17.5777 6.98029 0.0520322 5.04121 
261.37 89.3543 258.858 -85.8459 38.6658 -96.9111 -172.535 9.39811 93.7046 -54.2916 13.5623 2.9045 93.1962 14.2367 -3.90554 34.0388 3.76178 -7.24544 171.685 44.2148 93.3798 -108.095 10.0448 -3.90604 77.3798 -6.55054 -5.30495 21.7703 -3.09021 6.57177 -1.70994 8.21472 -88.7893 10.4687 -2.85032 2.67751 -1.20191 -2.72974 2.80032 -23.7534 -3.5231 1.69674 -3.74071 -3.52311 1.69674 94.3587 -38.2751 -96.0049 7.35028 12.8988 35.1823 -4.28669 -23.2137 -124.156 -42.8822 25.9848 -63.3001 -86.9427 -32.8594 80.0683 -9.9924 7.84175 -57.9326 -115.966 9.7518 -79.0349 -21.1595 3.28711 -21.336 19.7449 1.62136 -12.4972 6.3269 5.58438 1.77124 
247.159 92.3262 243.396 -87.776 43.2817 -88.5766 -168.448 -14.6756 92.8266 -30.9577 21.8666 5.85325 67.8244 5.14882 2.58227 57.7834 10.7455 -2.75207 175.912 50.3169 98.8072 -84.9657 14.0194 -1.75855 75.0936 -4.70979 -1.41763 24.7552 -2.77498 6.60679 -2.40423 7.88655 -89.9913 11.129 -4.78113 0.485056 -0.533314 -4.75511 0.695467 -23.1377 -4.70547 -0.977575 -3.12503 -4.70548 -0.977579 96.029 -33.9945 -93.7096 13.554 -5.553 43.1978 4.87134 -20.5054 -117.868 -26.882 18.8796 -77.1081 -85.0154 -27.1329 82.4337 -18.33 -2.50387 -53.3154 -126.723 8.50784 -69.0774 -27.0262 4.56081 -25.2042 17.3244 9.96215 -2.94688 1.22975 10.4565 -0.811042 
232.45 95.6229 227.315 -86.7104 48.7911 -83.6305 -167.273 -25.2256 99.0846 -22.808 24.0954 11.1338 53.9523 -1.87965 0.00398842 19.5528 -3.43724 -0.482794 -179.139 46.8481 101.488 -50.326 8.15578 -0.211738 69.4775 -3.7082 0.785814 22.7869 -1.66698 2.13049 -2.72779 8.03665 -91.2252 10.7572 -5.99665 -1.88281 -0.900842 -6.07367 -1.6162 -23.5124 -5.15325 -3.60148 -3.49972 -5.15327 -3.60149 94.0535 -29.6562 -98.5928 24.0019 -11.9448 45.3898 -23.171 1.09685 -117.612 -34.67 15.3182 -52.3976 -83.3715 -25.5778 85.4629 -12.2858 -8.76494 -44.7612 -133.57 9.27859 -62.3772 -24.5736 4.32712 -26.4111 18.1932 17.3062 8.20612 1.28468 14.2033 -4.16777 
219.044 95.0094 212.628 -90.0332 52.3816 -83.7152 -168.831 -24.9561 93.4111 -42.8643 32.5677 8.10152 58.2138 0.41996 4.83228 26.742 0.782006 -4.71024 -177.59 40.2036 99.2088 -34.9687 -4.57299 -0.999085 71.7971 -4.79053 -0.0235021 26.7287 -0.657259 1.15348 -2.3294 7.95249 -91.0812 10.9404 -5.13756 -1.65777 -0.721154 -5.20552 -1.42952 -23.3119 -4.40168 -3.12732 -3.29925 -4.40165 -3.12731 92.7585 -36.6571 -99.2759 24.3043 -12.5294 40.8914 -32.0856 7.2622 -106.145 -27.8842 7.1994 -34.3326 -86.1589 -31.06 81.1121 -5.81333 5.67966 -34.5472 -134.344 9.82775 -67.8504 -21.3718 3.14601 -23.3919 15.573 17.8651 9.77975 3.75885 14.4206 -4.82001 
206.164 93.1426 197.577 -99.021 52.3114 -78.4564 -165.586 -15.79 94.8714 -70.7265 10.5931 4.21742 58.2143 0.205062 3.54567 30.1282 2.46282 -6.46623 179.499 30.9208 98.3911 -39.2677 1.617 0.577209 67.8078 -3.0349 -0.0737377 23.8537 -1.9618 3.48721 -1.87733 8.23747 -90.7874 10.378 -4.10055 -1.20749 -1.28681 -4.1497 -1.02557 -23.8595 -3.54795 -2.38526 -3.84686 -3.54794 -2.38526 89.8982 -45.3732 -101.902 20.196 -6.81265 26.6531 -39.9355 8.57012 -98.0559 -18.6703 0.806479 -8.73511 -88.0789 -39.9046 79.7166 -7.42627 21.879 -21.5941 -139.551 -0.906427 -80.9118 -22.5519 3.14909 -22.0606 13.3996 16.0244 10.413 5.06323 12.6533 -4.56207 
195.859 91.2059 183.372 -103.374 53.763 -69.6073 -162.655 4.29598 104.468 -96.9599 3.02967 5.23045 62.6931 2.80219 7.15323 25.56 1.29671 -7.34659 177.449 27.6668 105.29 -55.6152 1.86912 1.79438 69.2508 -3.90234 -2.90529 21.6176 -2.23108 3.10341 -0.47128 8.38192 -91.4351 10.0837 -1.5926 -2.71938 -1.58907 -1.71074 -2.64673 -24.1018 -0.702147 -3.07191 -4.08915 -0.702165 -3.07191 86.8491 -49.8525 -105.459 17.3973 1.21822 4.40035 -43.0844 12.2009 -100.207 -15.3213 -2.09527 10.5587 -90.3571 -46.4322 77.6134 -14.124 29.4504 -5.13828 -135.424 -1.50433 -93.0713 -18.2142 1.51671 -15.6207 14.3483 12.0869 10.2052 4.02656 8.89259 -2.78062 
184.912 90.2728 171.088 -106.321 51.1453 -66.7519 -171.227 25.7044 101.376 -105.856 15.365 7.73598 67.2499 5.89465 10.0765 23.8035 2.28107 -11.6476 176.23 14.1348 104.363 -60.6405 2.18447 2.20245 81.933 -8.59199 -3.48346 27.3614 -1.36776 3.82447 0.394744 8.56133 -91.4832 9.74338 0.115701 -2.95098 -1.93093 -0.0142347 -2.95322 -24.4415 0.996874 -2.78004 -4.42887 0.996898 -2.78005 84.3633 -50.9331 -108.855 15.1578 8.87182 -22.1189 -38.4529 10.8308 -102.727 -19.36 -2.81922 11.8984 -88.2243 -44.1748 80.4536 -26.8536 29.4149 17.966 -136.676 2.19086 -88.4594 -18.0773 1.76944 -17.5859 17.0345 7.32901 6.09442 3.11221 5.34391 0.00637599 
